<?xml version="1.0" encoding="UTF-8"?>
<!-- Uploaded to: SVG Find, www.svgrepo.com, Generator: SVG Find Mixer Tools -->
<svg fill="black" width="800px" height="800px" version="1.1" viewBox="144 144 512 512" xmlns="http://www.w3.org/2000/svg" >
  <g>
    <path d="m420.99 400c0 11.594-9.3984 20.992-20.992 20.992s-20.992-9.3984-20.992-20.992 9.3984-20.992 20.992-20.992 20.992 9.3984 20.992 20.992z" fill="white"/>
    <path d="m400 420.99c11.594 0 20.992-9.3984 20.992-20.992s-9.3984-20.992-20.992-20.992-20.992 9.3984-20.992 20.992 9.3984 20.992 20.992 20.992z" fill="white" fill-rule="evenodd"/>
    <path d="m257.7 360.25c22.527 27.016 61.82 57.379 113.27 82.84 51.449 25.461 101.78 39.445 140.34 42.66 19.375 1.6133 33.555 0.32422 42.598-2.0547 5.3086-1.3984 7.5859-2.7773 8.375-3.3867 0.21875-0.88672 0.47656-3.2695-0.76562-7.9062-2.1211-7.9023-7.9062-19.074-19.227-32.648-22.527-27.012-61.816-57.379-113.27-82.84-51.453-25.461-101.78-39.445-140.34-42.656-19.379-1.6172-33.555-0.32812-42.602 2.0508-5.3047 1.3984-7.5859 2.7812-8.375 3.3867-0.21875 0.89062-0.47266 3.2695 0.76953 7.9102 2.1172 7.9023 7.9023 19.07 19.223 32.645zm-19.844-40.977c0.007813 0.003907-0.015625 0.066407-0.078125 0.18359 0.042969-0.12891 0.074219-0.18359 0.078125-0.18359zm-0.35547 0.58984c-0.082031 0.10547-0.13672 0.15625-0.14062 0.15234-0.007812-0.003907 0.035157-0.054688 0.14062-0.15234zm324.63 160.87c-0.007813-0.003906 0.015625-0.066406 0.078125-0.17969-0.039063 0.125-0.070313 0.18359-0.078125 0.17969zm0.35547-0.58984c0.082031-0.10547 0.13672-0.15234 0.14453-0.14844 0.003906 0-0.039063 0.054688-0.14453 0.14844zm-362.47-179.1c-28.984 43.027 37.051 122.21 147.5 176.87 110.44 54.652 223.47 64.074 252.46 21.047 28.98-43.027-37.055-122.21-147.5-176.87-110.45-54.652-223.47-64.078-252.46-21.051z" fill="white" fill-rule="evenodd"/>
    <path d="m288.69 485.75c38.559-3.2148 88.883-17.199 140.34-42.66 51.453-25.461 90.742-55.824 113.27-82.84 11.32-13.574 17.105-24.742 19.227-32.645 1.2422-4.6406 0.98438-7.0195 0.76562-7.9102-0.78906-0.60547-3.0664-1.9883-8.375-3.3867-9.043-2.3789-23.223-3.668-42.598-2.0508-38.559 3.2148-88.887 17.195-140.34 42.656-51.453 25.461-90.746 55.828-113.27 82.84-11.32 13.574-17.105 24.746-19.223 32.648-1.2422 4.6367-0.98828 7.0195-0.76953 7.9062 0.78906 0.60937 3.0703 1.9883 8.375 3.3867 9.0469 2.3789 23.223 3.668 42.602 2.0547zm-51.324-5.7578c0.003907-0.003906 0.058594 0.042969 0.14062 0.14844-0.10547-0.09375-0.14844-0.14844-0.14062-0.14844zm0.41797 0.55859c0.0625 0.11328 0.085938 0.17578 0.078125 0.17969-0.003906 0.003907-0.035156-0.054687-0.078125-0.17969zm324.86-160.54c-0.007813 0.003906-0.0625-0.046875-0.14453-0.15234 0.10547 0.097656 0.14844 0.14844 0.14453 0.15234zm-0.42188-0.55859c-0.0625-0.11719-0.085938-0.17969-0.078125-0.18359 0.007812 0 0.039062 0.054688 0.078125 0.18359zm-362.19 179.5c28.984 43.027 142.01 33.605 252.46-21.047 110.44-54.656 176.48-133.84 147.5-176.87-28.984-43.027-142.02-33.602-252.46 21.051-110.45 54.652-176.48 133.84-147.5 176.87z" fill="white" fill-rule="evenodd"/>
    <path d="m419.91 548.93c13.129-36.098 22.07-88.746 22.07-148.93 0-60.188-8.9414-112.84-22.07-148.93-6.625-18.223-13.52-30.012-19.066-36.465-0.30078-0.34375-0.58203-0.66406-0.84766-0.95703-0.26953 0.29297-0.55469 0.61328-0.84766 0.95703-5.5469 6.4531-12.445 18.242-19.074 36.465-13.125 36.098-22.062 88.746-22.062 148.93 0 60.184 8.9375 112.83 22.062 148.93 6.6289 18.223 13.527 30.012 19.074 36.465 0.29297 0.34766 0.57812 0.66406 0.84766 0.95703 0.26562-0.29297 0.54688-0.60937 0.84766-0.95703 5.5469-6.4531 12.441-18.242 19.066-36.465zm-23.598 40.703c0-0.007812 0.078125-0.058593 0.23828-0.125-0.16016 0.097657-0.23828 0.13281-0.23828 0.125zm7.125-0.125c0.16016 0.066407 0.23828 0.11719 0.23828 0.125 0 0.007813-0.082032-0.027343-0.23828-0.125zm0.23828-379.14c0 0.007813-0.078126 0.058594-0.23828 0.12891 0.15625-0.10156 0.23828-0.13672 0.23828-0.12891zm-7.125 0.12891c-0.16016-0.070313-0.23828-0.12109-0.23828-0.12891 0-0.007812 0.078125 0.027344 0.23828 0.12891zm3.4453 420.42c46.371 0 83.965-103.38 83.965-230.91 0-127.53-37.594-230.91-83.965-230.91-46.375 0-83.969 103.38-83.969 230.91 0 127.53 37.594 230.91 83.969 230.91z" fill="white" fill-rule="evenodd"/>
  </g>
</svg>
